<?xml version="1.0" encoding="UTF-8"?>
<!DOCTYPE svg PUBLIC "-//W3C//DTD SVG 1.1//EN" "http://www.w3.org/Graphics/SVG/1.1/DTD/svg11.dtd">
<!-- Creator: CorelDRAW -->
<svg xmlns="http://www.w3.org/2000/svg" xml:space="preserve" width="50px" height="50px" version="1.1" style="shape-rendering:geometricPrecision; text-rendering:geometricPrecision; image-rendering:optimizeQuality; fill-rule:evenodd; clip-rule:evenodd"
viewBox="0 0 50 50"
 xmlns:xlink="http://www.w3.org/1999/xlink"
 xmlns:xodm="http://www.corel.com/coreldraw/odm/2003">
 <defs>
  <style type="text/css">
   <![CDATA[
    .fil1 {fill:url(#id0)}
    .fil0 {fill:url(#id1)}
   ]]>
  </style>
  <linearGradient id="id0" gradientUnits="userSpaceOnUse" x1="17.67" y1="21.96" x2="29.39" y2="28.72">
   <stop offset="0" style="stop-opacity:1; stop-color:#FFD349"/>
   <stop offset="1" style="stop-opacity:1; stop-color:#F09905"/>
  </linearGradient>
  <linearGradient id="id1" gradientUnits="userSpaceOnUse" xlink:href="#id0" x1="-2364.91" y1="2223.89" x2="-2266.29" y2="2280.83">
  </linearGradient>
 </defs>
 <g id="Layer_x0020_1">
  <metadata id="CorelCorpID_0Corel-Layer"/>
  <path class="fil0" d="M-2355.85 2247.64c-2.25,-11.99 8.47,-25.87 14.82,-36.86l45.07 -78.03c7.12,-12.31 12.02,-24.02 24.87,-30.84 1.76,-0.94 3.24,-1.57 4.91,-2.32 4.61,-2.04 10.67,-3.03 16.14,-3.02 21.99,0.03 39.41,16.51 42.26,37.45 2.49,18.29 -7.97,31.39 -18.06,48.88l-74.99 129.87c-2.5,4.34 -4.29,7.71 -8.56,9.35 -3.17,1.22 -6.84,1.59 -11.38,-0.5 -4.46,-2.07 -8.79,-5.5 -13.52,-7.13 -11.58,-4 -23.26,-0.42 -30.73,9.93l-0.48 -0.28c-2.16,-1.23 -4.32,-2.46 -6.47,-3.7 -1.77,-1.03 -4.49,-3.27 -5.96,-2.17 -1.17,0.87 -6.69,10.84 -6.51,11.87 0.11,0.67 1.53,1.75 3.36,2.9 -1.94,8.52 -11.03,14.56 -17.21,18.48 -5.01,3.18 -10.45,6.54 -15.3,10.05 -1.28,0.94 -1.26,0.98 -1.03,2.46 0.18,1.18 0.19,1.64 0.29,2.81 0.8,8.7 1.1,14.55 0.99,23.53l-0.8 23.85 19.06 -32.86c-6.19,-8.93 3.83,-20.74 13.85,-15.06 4.57,2.59 5.99,8.11 4.65,12.32 -1.91,5.98 -6.84,6.81 -10.78,7.26l-18.93 32.81c3.12,-1.59 6.97,-4.51 10.14,-6.46 11.68,-7.15 18.45,-11.47 31.18,-17.17 4.9,-2.2 3.54,-0.76 4.41,-9.71 0.38,-3.96 0.38,-7.91 0.52,-11.88 0.25,-7.11 1.27,-18.28 7.5,-24.07 1.81,1.14 3.98,2.65 5.2,1.56 0.91,-0.81 6.57,-10.73 6.52,-11.65 -0.07,-1.55 -3.67,-3 -5.33,-3.96l-7.21 -4.18c3.21,-4.51 7.15,-6.14 11.23,-6.23 8.67,-0.19 15.43,10.54 29.77,10.17 17.75,-0.45 23.55,-15.67 31.16,-28.84 23.38,-40.5 46.75,-81.49 70.32,-121.79 5.2,-8.9 12.9,-20.77 16.19,-30.1 5.11,-14.44 3.43,-29.01 -3.19,-42.18 -0.34,-0.69 -1.01,-1.84 -1.53,-2.75 -6.28,-11 -16.39,-19.58 -29.08,-24.91 -7.52,-3.16 -20.12,-5.13 -27.69,-3.81 -2.15,0.38 -4.43,0.63 -6.51,1.02 -2.04,0.38 -3.72,1.22 -6.02,1.84 -3.66,0.99 -8.14,3.46 -11.69,5.79 -9.51,6.27 -13.57,12.44 -19.74,23.12l-52.78 91.42c-8.4,14.55 -19.37,28.24 -18.71,43.92 0.2,4.61 1.79,12 3.54,15.47 1.59,3.13 2.87,5.61 5.14,8.6 7.88,10.39 20.94,16.78 33.75,16.93 3.05,0.04 3.81,-0.2 6.42,-0.47 5.59,-0.59 7.49,-1.6 12.28,-3.76 14.37,-6.47 20.6,-22.41 28.79,-36.61l43.99 -76.42c2.81,-4.97 6.14,-9.03 7.33,-14.6 1.66,-7.81 0.46,-10.76 -1.55,-16.18 -0.46,-1.23 -0.58,-1.57 -1.4,-2.79 -5.05,-7.52 -9.02,-10.89 -18.62,-13.35 -7.14,-1.83 -13.56,-0.05 -19.05,3.03 -8.14,4.56 -10,11.71 -14.48,18.54 -6.09,9.29 -11.95,20.59 -17.58,30.35l-34.94 60.76c-0.26,0.52 -0.73,1.63 -0.96,2.49 -0.79,2.96 1.22,6.89 5.35,7.95 3.28,0.83 5.69,-1.03 7.34,-3.77 1.65,-2.74 5.65,-9.64 7.39,-12.64 5.48,-9.51 50.15,-87.82 52.46,-90.58 5.68,-6.77 16.31,-6.27 21.43,1.22 5.36,7.85 0.48,14.19 -4.96,23.62l-45.06 78.04c-4.5,7.81 -9.01,18.08 -15.84,23.25 -13.83,10.47 -33.02,6.09 -41.76,-8.78 -0.99,-1.69 -1.51,-3.6 -2.19,-5.23 -0.67,-1.6 -0.73,-3.59 -1.04,-5.27z"/>
  <path class="fil1" d="M18.75 24.78c-0.27,-1.43 1.01,-3.07 1.76,-4.38l5.35 -9.26c0.85,-1.47 1.43,-2.86 2.96,-3.67 0.21,-0.11 0.38,-0.18 0.58,-0.27 0.55,-0.24 1.26,-0.36 1.92,-0.36 2.61,0 4.68,1.96 5.01,4.45 0.3,2.17 -0.94,3.72 -2.14,5.8l-8.91 15.42c-0.29,0.52 -0.51,0.92 -1.01,1.11 -0.38,0.15 -0.81,0.19 -1.35,-0.06 -0.53,-0.24 -1.05,-0.65 -1.61,-0.84 -1.37,-0.48 -2.76,-0.05 -3.65,1.18l-0.06 -0.04c-0.25,-0.14 -0.51,-0.29 -0.76,-0.44 -0.21,-0.12 -0.54,-0.38 -0.71,-0.25 -0.14,0.1 -0.8,1.28 -0.78,1.41 0.02,0.07 0.19,0.2 0.4,0.34 -0.23,1.01 -1.31,1.73 -2.04,2.19 -0.59,0.38 -1.24,0.78 -1.82,1.2 -0.15,0.11 -0.14,0.11 -0.12,0.29 0.02,0.14 0.02,0.19 0.04,0.33 0.09,1.04 0.13,1.73 0.11,2.8l-0.09 2.83 2.26 -3.9c-0.73,-1.06 0.46,-2.47 1.65,-1.79 0.54,0.31 0.71,0.96 0.55,1.46 -0.23,0.71 -0.81,0.81 -1.28,0.86l-2.25 3.9c0.37,-0.19 0.83,-0.54 1.21,-0.77 1.38,-0.85 2.19,-1.36 3.7,-2.04 0.58,-0.26 0.42,-0.09 0.52,-1.15 0.05,-0.47 0.05,-0.94 0.06,-1.41 0.03,-0.84 0.15,-2.17 0.89,-2.86 0.22,0.14 0.48,0.32 0.62,0.19 0.11,-0.1 0.78,-1.28 0.78,-1.39 -0.01,-0.18 -0.44,-0.35 -0.64,-0.47l-0.85 -0.49c0.38,-0.54 0.85,-0.73 1.33,-0.74 1.03,-0.02 1.83,1.25 3.53,1.21 2.11,-0.06 2.8,-1.87 3.7,-3.43 2.78,-4.81 5.56,-9.68 8.36,-14.46 0.61,-1.06 1.53,-2.47 1.92,-3.57 0.6,-1.72 0.4,-3.45 -0.38,-5.01 -0.04,-0.08 -0.12,-0.22 -0.18,-0.33 -0.75,-1.31 -1.95,-2.33 -3.46,-2.96 -0.89,-0.37 -2.39,-0.61 -3.28,-0.45 -0.26,0.04 -0.53,0.07 -0.78,0.12 -0.24,0.04 -0.44,0.15 -0.71,0.22 -0.44,0.12 -0.97,0.41 -1.39,0.69 -1.13,0.74 -1.61,1.47 -2.34,2.74l-6.27 10.86c-1,1.73 -2.3,3.35 -2.22,5.21 0.02,0.55 0.21,1.43 0.42,1.84 0.19,0.37 0.34,0.67 0.61,1.02 0.93,1.24 2.48,1.99 4,2.01 0.37,0.01 0.46,-0.02 0.77,-0.05 0.66,-0.07 0.89,-0.19 1.46,-0.45 1.7,-0.77 2.44,-2.66 3.41,-4.35l5.23 -9.07c0.33,-0.59 0.73,-1.07 0.87,-1.74 0.2,-0.92 0.05,-1.27 -0.19,-1.92 -0.05,-0.14 -0.06,-0.18 -0.16,-0.33 -0.6,-0.89 -1.07,-1.29 -2.21,-1.58 -0.85,-0.22 -1.61,-0.01 -2.27,0.36 -0.96,0.54 -1.18,1.39 -1.71,2.2 -0.73,1.1 -1.42,2.44 -2.09,3.6l-4.15 7.22c-0.03,0.06 -0.09,0.19 -0.12,0.29 -0.09,0.35 0.15,0.82 0.64,0.95 0.39,0.09 0.68,-0.13 0.87,-0.45 0.2,-0.33 0.67,-1.15 0.88,-1.5 0.65,-1.13 5.96,-10.43 6.23,-10.76 0.67,-0.8 1.94,-0.74 2.54,0.15 0.64,0.93 0.06,1.68 -0.59,2.8l-5.35 9.27c-0.53,0.93 -1.07,2.14 -1.88,2.76 -1.64,1.24 -3.92,0.72 -4.96,-1.04 -0.11,-0.2 -0.18,-0.43 -0.26,-0.62 -0.08,-0.2 -0.08,-0.43 -0.12,-0.63z"/>
 </g>
</svg>
